<svg xmlns="http://www.w3.org/2000/svg" version="1.1" viewBox="-5.0 -10.0 110.0 135.0">
 <path fill="#FFFFFF" d="m59.34 49.688-3.8633-0.875c-0.46094-0.10547-0.83203-0.44531-0.97656-0.89453-0.20312-0.625-0.46094-1.2422-0.76953-1.8398-0.21875-0.42188-0.19531-0.92578 0.058593-1.3281l2.1133-3.3516-2.7148-2.7188-3.3516 2.1133c-0.39844 0.25391-0.90625 0.27734-1.3281 0.058593-0.57812-0.30078-1.1992-0.55469-1.8398-0.76172-0.45312-0.14453-0.79297-0.51562-0.89453-0.97656l-0.87109-3.8633h-3.8477l-0.87109 3.8633c-0.10547 0.46094-0.44531 0.83203-0.89453 0.97656-0.64062 0.20703-1.2617 0.46484-1.8398 0.76172-0.42188 0.21875-0.92578 0.19531-1.3281-0.058593l-3.3516-2.1133-2.7188 2.7188 2.1133 3.3516c0.25391 0.40234 0.27734 0.90625 0.058594 1.3281-0.30078 0.57812-0.55469 1.1953-0.76172 1.8398-0.14453 0.44922-0.51563 0.78906-0.97656 0.89453l-3.8633 0.875v3.8438l3.8633 0.87891c0.46094 0.10156 0.83203 0.44531 0.97656 0.89062 0.20703 0.64453 0.46484 1.2617 0.76172 1.8398 0.21875 0.42188 0.19531 0.92969-0.058594 1.3281l-2.1133 3.3516 2.7188 2.7188 3.3516-2.1133c0.40234-0.25391 0.90625-0.27344 1.3281-0.054687 0.57812 0.29688 1.1953 0.55469 1.8398 0.76172 0.44922 0.14453 0.78906 0.51563 0.89453 0.97656l0.87109 3.8594h3.8477l0.87109-3.8594c0.10156-0.46484 0.44531-0.83594 0.89453-0.98047 0.64062-0.20312 1.2617-0.46094 1.8398-0.76172 0.42188-0.21875 0.92578-0.19531 1.3281 0.054687l3.3516 2.1133 2.7148-2.7188-2.1133-3.3516c-0.25391-0.39844-0.27734-0.90625-0.058593-1.3281 0.30859-0.59375 0.56641-1.2148 0.76953-1.8398 0.14453-0.44922 0.51562-0.78906 0.97656-0.89062l3.8633-0.87891zm-16.355 9.3789c-4.1094 0-7.4531-3.3438-7.4531-7.4531s3.3438-7.4531 7.4531-7.4531 7.4531 3.3438 7.4531 7.4531-3.3438 7.4531-7.4531 7.4531zm-29.281-28.344c0-0.73828 0.59766-1.3359 1.3359-1.3359h11.906c0.73828 0 1.3359 0.59766 1.3359 1.3359 0 0.73828-0.59766 1.3359-1.3359 1.3359h-11.906c-0.73828 0-1.3359-0.59766-1.3359-1.3359zm0-5.2656c0-0.73828 0.59766-1.3398 1.3359-1.3398h11.906c0.73828 0 1.3359 0.59766 1.3359 1.3398 0 0.73828-0.59766 1.3359-1.3359 1.3359l-11.906 0.003906c-0.73828 0-1.3359-0.60156-1.3359-1.3398zm58.512 50.227-7 4.6211 0.50391-8.375zm3.2812 1.0391-0.31641 0.21094v18.785c0 0.33203-0.27734 0.60938-0.60938 0.60938l-63.766-0.003906c-0.33203 0-0.61719-0.27734-0.61719-0.60938v-79.91c0-0.33594 0.27734-0.60938 0.61719-0.60938h15.125v1.3281c0 2.2422 1.8242 4.0664 4.0703 4.0664h25.367c2.2461 0 4.0703-1.8242 4.0703-4.0664v-1.3281h15.133c0.33594 0 0.60938 0.27344 0.60938 0.60938v32.727l2.6758-4.6328v-28.094c0-1.8125-1.4727-3.2852-3.2852-3.2852h-15.133v-0.21484c0-2.2461-1.8242-4.0703-4.0703-4.0703h-4.2148c-0.64453-4.0938-4.1953-7.2344-8.4648-7.2344s-7.8203 3.1406-8.4648 7.2344h-4.2227c-2.2461 0-4.0703 1.8242-4.0703 4.0703v0.21484h-15.125c-1.8164 0-3.2891 1.4727-3.2891 3.2852v79.91c0 1.8125 1.4766 3.2852 3.2891 3.2852h63.766c1.8125 0 3.2852-1.4727 3.2852-3.2852v-22.797l-1.9375 3.3555c-0.10547 0.17969-0.25 0.33203-0.42188 0.44922zm-34.52-68.855c0.46094-0.46094 1.0625-0.71094 1.7188-0.71094 0.64453 0.003906 1.2461 0.25391 1.6992 0.71094 0.45703 0.45312 0.71094 1.0586 0.71094 1.7031 0 0.64844-0.25391 1.2578-0.71484 1.7109-0.44141 0.44922-1.0469 0.70312-1.6914 0.70312h-0.007813c-0.64453 0-1.2539-0.25391-1.7109-0.71094-0.94531-0.9375-0.94531-2.4688-0.003907-3.4062zm51.207 34.883-1.2188 2.1133-7.9336-4.582 1.2227-2.1133c0.625-1.0781 2.0156-1.4492 3.0938-0.82812l4.0117 2.3164h0.003906c0.51953 0.30078 0.89453 0.78906 1.0508 1.375 0.15234 0.58594 0.074219 1.1953-0.23047 1.7188zm-78.48-6.7656c0-0.73828 0.59766-1.3359 1.3359-1.3359h6.3555c0.73828 0 1.3359 0.59766 1.3359 1.3359s-0.59766 1.3359-1.3359 1.3359h-6.3555c-0.73828 0-1.3359-0.59766-1.3359-1.3359zm67.988 6.6172 7.9336 4.5781-15.355 26.602-7.9297-4.582 11.289-19.559 0.074219-0.125zm-66.34 35.461v-21.617c0-3.4023 2.7695-6.1719 6.1719-6.1719h2.4297v2.6758h-2.4297c-1.9297 0-3.4961 1.5703-3.4961 3.4961v21.617c0 1.9297 1.5703 3.4961 3.4961 3.4961h35c0.73828 0 1.3359 0.59766 1.3359 1.3398 0 0.73828-0.59766 1.3398-1.3359 1.3398l-35-0.003906c-3.4023 0-6.1719-2.7695-6.1719-6.1719z"/>
</svg>